<svg viewBox="0 0 583 410" xmlns="http://www.w3.org/2000/svg" xmlns:xlink="http://www.w3.org/1999/xlink" id="Layer_1" overflow="hidden"><defs/><path d="M538 1C534.68 12.89 529.75 24.2 525.45 35.73 501.05 101.29 476.53 166.81 452.04 232.33 442.13 258.85 432.21 285.38 422.22 311.87 420.99 315.14 420.1 320.04 415.08 318.12 410.21 316.27 412.46 312.09 413.73 308.68 436.42 247.82 459.11 186.95 481.83 126.1 496.63 86.47 511.5 46.86 526.3 7.23 527.05 5.22 527.44 3.08 527.99 0.99 531.32 0.99 534.66 0.99 537.99 0.99Z" fill="#06F27B"/><path d="M561 1C553.79 20.7 546.66 40.43 539.34 60.09 521.09 109.09 502.76 158.07 484.46 207.05 472.1 240.12 459.74 273.19 447.38 306.26 446.24 309.31 444.86 312.79 440.82 311.43 436.43 309.95 437.61 306.27 438.83 303.02 451.5 269 464.16 234.98 476.87 200.97 497.27 146.37 517.72 91.79 538.08 37.18 542.55 25.18 547.65 13.41 551 1.01 554.33 1.01 557.67 1.01 561 1.01Z" fill="#06F27B"/><path d="M515 1C512.46 11.39 508 21.1 504.29 31.07 485.43 81.8 466.39 132.46 447.44 183.16 432.86 222.16 418.31 261.17 403.74 300.17 403.45 300.95 403.13 301.73 402.74 302.46 401.44 304.89 399.58 306.58 396.7 305.4 393.81 304.22 393.59 301.64 394.51 299.06 397.13 291.69 399.85 284.35 402.59 277.01 425.34 216 448.07 154.98 470.89 94 482.5 62.97 494.29 32 505.99 1 508.99 1 511.99 1 514.99 1Z" fill="#06F27B"/><path d="M582 9C577.27 18.03 574.37 27.79 570.81 37.28 540.33 118.55 509.95 199.86 479.56 281.17 478.45 284.14 477.46 287.14 476.35 290.11 475.15 293.33 473.33 296.16 469.39 294.59 465.78 293.16 466.82 289.92 467.78 287.26 471.79 276.13 475.89 265.04 480.03 253.96 498.15 205.42 516.28 156.88 534.42 108.34 546.9 74.94 559.42 41.56 571.92 8.17 572.8 5.83 573.86 3.55 574 1 579.333 1 582 3.66667 582 9Z" fill="#06F27B"/><path d="M469 1C466.58 11.08 462.28 20.5 458.69 30.16 429.81 107.77 400.8 185.33 371.83 262.9 370.26 267.11 368.63 271.31 367.01 275.5 365.88 278.44 364.45 281.49 360.61 280.04 356.61 278.53 357.36 275.24 358.56 272.03 369.95 241.6 381.33 211.17 392.71 180.74 414.06 123.62 435.39 66.49 456.74 9.37 457.79 6.56 458.92 3.78 460.01 0.99 463.01 0.99 466.01 0.99 469.01 0.99Z" fill="#06F27B"/><path d="M582 70C576.05 82.86 571.69 96.34 566.73 109.58 541.66 176.47 516.71 243.41 491.71 310.33 491.3 311.42 490.81 312.48 490.38 313.56 489.32 316.22 487.88 318.6 484.52 317.48 481.05 316.32 480.84 313.56 481.95 310.53 484.87 302.56 487.79 294.58 490.76 286.62 509.98 235.14 529.21 183.66 548.45 132.19 558.83 104.43 569.22 76.67 579.64 48.92 580.28 47.22 581.21 45.63 582 43.99L582 69.99Z" fill="#06F27B"/><path d="M492 1C488.25 14.14 482.92 26.72 478.17 39.5 458.98 91.15 439.63 142.75 420.36 194.38 413.78 212 407.29 229.66 400.63 247.26 399.38 250.55 398.2 255.35 393.34 253.53 388.04 251.54 390.84 247.22 392.12 243.76 410.26 195.09 428.44 146.43 446.6 97.77 458.24 66.58 469.88 35.38 481.54 4.19 481.95 3.1 482.51 2.07 483 1.02 486 1.02 489 1.02 492 1.02Z" fill="#06F27B"/><path d="M447 1C439.1 21.86 431.13 42.69 423.31 63.57 401 123.12 378.76 182.69 356.48 242.25 356.02 243.49 355.55 244.76 354.87 245.89 353.68 247.88 351.77 248.33 349.65 247.74 347.52 247.15 346.88 245.41 347.03 243.45 347.14 241.98 347.47 240.48 347.99 239.1 377.64 159.73 407.32 80.37 437 1 440.33 1 443.67 1 447 1Z" fill="#06F27B"/><path d="M401 1C392.9 22.5 384.76 43.98 376.71 65.49 355.28 122.71 333.89 179.94 312.5 237.18 311.35 240.26 309.72 242.95 306 241.58 302.22 240.19 302.86 237.07 304 234.02 324.63 178.81 345.25 123.6 365.86 68.39 374.25 45.93 382.62 23.47 391.01 1.01 394.34 1.01 397.68 1.01 401.01 1.01Z" fill="#06F27B"/><path d="M582 131C576.31 145.92 570.53 160.82 564.93 175.78 544.16 231.29 523.47 286.82 502.64 342.31 501.36 345.73 500.77 351.52 495.14 349.45 489.45 347.36 492.83 342.73 494.13 339.24 522.87 262.19 551.67 185.15 580.48 108.13 580.88 107.05 581.49 106.05 582 105.01L582 131.01Z" fill="#06F27B"/><path d="M423 1C420.33 12.57 415.31 23.32 411.21 34.38 392.05 86.06 372.69 137.66 353.39 189.29 351.82 193.5 350.15 197.68 348.63 201.91 347.51 205.03 345.55 206.92 342.22 205.6 338.8 204.24 339.07 201.43 340.19 198.46 351.21 168.98 362.19 139.49 373.21 110.01 386.79 73.67 400.41 37.34 414.01 1 417.01 1 420.01 1 423.01 1Z" fill="#06F27B"/><path d="M332 1C310.74 57.92 289.47 114.83 268.21 171.75 265.01 180.33 261.83 188.91 258.59 197.47 257.83 199.48 257.14 201.61 255.31 202.97 253.64 204.21 251.85 204.08 250.22 202.87 248.14 201.33 248.06 199.24 248.89 197.04 251.93 188.94 255.05 180.86 258.08 172.75 279.07 116.62 300.04 60.48 321 4.34 321.41 3.25 321.68 2.11 322.01 0.99 325.34 0.99 328.68 0.99 332.01 0.99Z" fill="#06F27B"/><path d="M355 1C334.1 56.85 313.2 112.7 292.3 168.55 289.38 176.35 286.42 184.14 283.55 191.95 282.44 194.97 281 197.88 277.2 196.65 272.99 195.29 273.82 191.86 274.98 188.74 284.57 162.98 294.21 137.24 303.82 111.49 317.56 74.66 331.28 37.82 345.01 0.99 348.34 0.99 351.68 0.99 355.01 0.99Z" fill="#06F27B"/><path d="M378 1C360.29 48.27 342.59 95.55 324.88 142.82 319.62 156.86 314.35 170.9 309.04 184.92 308.35 186.75 307.87 188.8 305.92 189.88 304.26 190.79 302.7 190.51 301.23 189.46 299.73 188.39 299.02 186.9 299.55 185.11 300.35 182.4 301.23 179.7 302.22 177.05 324.14 118.36 346.07 59.68 368 1 371.33 1 374.67 1 378 1Z" fill="#06F27B"/><path d="M286 1C271.33 40.33 256.68 79.66 242 118.98 235.53 136.3 229.03 153.61 222.54 170.92 222.31 171.54 222.14 172.2 221.88 172.81 220.55 175.83 219.53 179.89 215.07 178.17 210.81 176.53 212.12 172.83 213.32 169.6 227.24 132.3 241.2 95.02 255.09 57.71 262.12 38.83 269.03 19.9 276 0.99 279.33 0.99 282.67 0.99 286 0.99Z" fill="#06F27B"/><path d="M309 1C288.73 55.29 268.46 109.58 248.19 163.87 247.67 165.27 247.12 166.67 246.47 168.02 245.32 170.42 243.73 172.58 240.72 171.42 237.45 170.16 237 167.4 238.12 164.36 240.36 158.27 242.7 152.21 244.97 146.12 262.71 98.7 280.44 51.29 298.17 3.87 298.52 2.94 298.73 1.95 299 0.99 302.33 0.99 305.67 0.99 309 0.99Z" fill="#06F27B"/><path d="M582 193C576.18 205.37 572.04 218.4 567.21 231.16 555.36 262.46 543.78 293.86 532.07 325.22 531.43 326.94 530.78 328.65 530.01 330.31 528.93 332.65 527.15 334.28 524.49 333.27 521.56 332.16 520.6 329.77 521.71 326.76 524.6 318.95 527.5 311.15 530.42 303.35 546.85 259.36 563.29 215.37 579.72 171.38 580.3 169.82 580.74 168.2 581.99 166.99L581.99 192.99Z" fill="#06F27B"/><path d="M263 1C249.34 37.67 235.68 74.34 222.01 111 218.46 120.52 214.9 130.03 211.34 139.54 210.99 140.48 210.7 141.44 210.25 142.33 208.98 144.86 207.31 147.13 204.07 145.84 200.97 144.61 200.73 142.01 201.78 139.15 204.44 131.97 207.07 124.77 209.75 117.6 223.57 80.63 237.41 43.67 251.21 6.7 251.91 4.83 252.4 2.89 252.99 0.98 256.32 0.98 259.66 0.98 262.99 0.98Z" fill="#06F27B"/><path d="M582 254C575.56 268.64 570.63 283.86 564.93 298.78 555.9 322.42 547.13 346.17 538.25 369.87 537.49 371.9 536.86 374.03 534.66 375.04 532.94 375.83 531.39 375.42 530.06 374.18 528 372.26 528.45 370.01 529.31 367.71 533.28 357.11 537.24 346.5 541.21 335.89 554.18 301.27 567.14 266.66 580.13 232.05 580.65 230.66 581.38 229.34 582 227.99L582 253.99Z" fill="#06F27B"/><path d="M171 1C165.16 16.95 159.36 32.91 153.47 48.84 146.14 68.68 138.73 88.49 131.36 108.32 131.07 109.1 130.82 109.9 130.5 110.66 129.28 113.52 127.42 115.79 124.03 114.51 120.6 113.22 120.75 110.36 121.86 107.39 127.82 91.48 133.76 75.56 139.71 59.65 146.42 41.71 153.16 23.78 159.83 5.83 160.4 4.29 160.62 2.61 161.01 1 164.34 1 167.68 1 171.01 1Z" fill="#06F27B"/><path d="M240 1C227.35 34.98 214.71 68.95 202.06 102.93 201.19 105.27 200.39 107.64 199.43 109.93 198.21 112.83 196.24 114.88 192.87 113.5 189.65 112.18 189.92 109.46 190.94 106.73 196.58 91.62 202.21 76.5 207.87 61.39 214.98 42.39 222.11 23.39 229.21 4.38 229.61 3.3 229.75 2.13 230.02 1 233.35 1 236.69 1 240.02 1Z" fill="#06F27B"/><path d="M194 1C187.04 19.91 180.11 38.82 173.12 57.72 167.75 72.25 162.3 86.75 156.89 101.26 156.48 102.35 156.03 103.43 155.6 104.51 154.51 107.22 152.61 108.55 149.7 107.59 146.86 106.65 146.45 104.14 147.19 101.84 149.12 95.82 151.37 89.91 153.58 83.98 163.45 57.45 173.36 30.92 183.23 4.39 183.63 3.31 183.75 2.13 184.01 1 187.34 1 190.68 1 194.01 1Z" fill="#06F27B"/><path d="M217 1C209.37 21.6 201.74 42.21 194.11 62.81 191.16 70.77 188.19 78.73 185.24 86.69 184.41 88.94 183.4 91.11 180.72 91.52 177.14 92.06 175.04 88.56 176.6 83.99 179.28 76.11 182.36 68.37 185.18 60.54 192.35 40.65 200.63 21.18 207 1 210.33 1 213.67 1 217 1Z" fill="#06F27B"/><path d="M148 1C141.44 21.1 133.4 40.66 126.18 60.52 124.13 66.15 122.02 71.76 119.86 77.35 118.7 80.37 117.34 83.85 113.21 82.17 109.4 80.62 110.07 77.42 111.32 74.12 119.52 52.49 127.62 30.82 135.7 9.14 136.68 6.5 137.86 3.89 138 1L148 1Z" fill="#06F27B"/><path d="M582 316C577.14 325.32 574.44 335.49 570.49 345.18 567.35 352.88 564.63 360.75 561.64 368.51 560.63 371.13 559.06 373.62 555.76 372.43 552.52 371.26 552.02 368.61 553.2 365.45 562.23 341.3 571.2 317.12 580.23 292.97 580.63 291.91 581.4 290.99 582 290L582 316Z" fill="#06F27B"/><path d="M79 1C76.6 11.23 71.96 20.66 68.55 30.53 65.62 39 62.34 47.35 59.21 55.75 58.75 56.99 58.31 58.25 57.74 59.45 56.48 62.12 54.96 64.79 51.4 63.46 47.65 62.05 48.04 59.06 49.21 55.98 53.49 44.64 57.72 33.28 62 21.94 64.64 14.95 67.33 7.98 69.99 1 72.99 1 75.99 1 78.99 1Z" fill="#06F27B"/><path d="M582 375C578.27 381.35 576.65 388.56 573.78 395.26 573.32 396.33 573 397.45 572.57 398.54 571.41 401.52 569.18 402.74 566.23 401.66 563.25 400.57 563.1 398.04 564.05 395.43 568.05 384.5 572.04 373.57 576.18 362.7 577.94 358.07 579.06 353.14 582 349.01L582 375.01Z" fill="#06F27B"/><path d="M125 1C121.57 13.33 116.15 24.94 111.93 36.99 111.04 39.52 109.15 41.35 106.17 40.36 102.93 39.29 102.57 36.69 103.58 33.86 106.72 25.11 109.93 16.39 113.15 7.68 113.95 5.5 114.92 3.38 115 1L125 1Z" fill="#06F27B"/><path d="M102 1C98.82 12.52 93.91 23.42 89.82 34.61 88.93 37.04 86.79 38.31 84.2 37.32 81.44 36.27 80.57 33.93 81.58 31.22 85.33 21.13 89.19 11.07 93.01 1 96.01 1 99.01 1 102.01 1Z" fill="#06F27B"/><path d="M56 1C54.09 9.48 50.51 17.37 47.42 25.43 46.47 27.9 44.36 29.65 41.44 28.37 38.7 27.16 38.17 24.73 39.15 22.05 41.72 15.02 44.37 8.02 46.99 1 49.99 1 52.99 1 55.99 1Z" fill="#06F27B"/><path d="M34 1C32.23 5.46 30.47 9.93 28.67 14.38 27.45 17.39 25.62 19.96 21.98 18.45 18.63 17.06 19.01 14.08 20.1 11.22 21.4 7.81 22.7 4.41 24 1 27.33 1 30.67 1 34 1Z" fill="#06F27B"/></svg>