<svg viewBox="0 0 282 179" xmlns="http://www.w3.org/2000/svg" xmlns:xlink="http://www.w3.org/1999/xlink" id="Layer_1" xml:space="preserve" overflow="hidden"><style>
.MsftOfcThm_Text2_Fill_v2 {
 fill:#06F27B; 
}
.MsftOfcThm_Text2_Stroke_v2 {
 stroke:#06F27B; 
}
</style>
<g><path d="M264.74 154.99C260.52 155.16 257.4 153.05 254.57 150.21 241.52 137.11 228.43 124.05 215.35 110.98 193.09 88.72 170.82 66.45 148.56 44.19 144.76 40.39 144.75 40.39 141.04 44.1 105.79 79.35 70.53 114.59 35.3 149.87 32.38 152.79 29.28 155.07 24.9 155.02 19.95 154.97 16.16 152.94 13.9 148.56 11.67 144.23 11.91 139.85 14.62 135.76 15.57 134.32 16.85 133.07 18.08 131.84 56.68 93.22 95.28 54.61 133.9 16.01 141.48 8.43 148.04 8.41 155.56 15.93 194.26 54.62 232.95 93.33 271.66 132 274.66 135 277.08 138.14 277.04 142.69 276.96 149.79 271.83 155 264.74 154.99Z" class="MsftOfcThm_Text2_Fill_v2 MsftOfcThm_Text2_Stroke_v2" stroke="#06F27B" stroke-width="0.999829" stroke-linecap="butt" stroke-linejoin="miter" stroke-miterlimit="4" stroke-opacity="1" fill="#06F27B" fill-opacity="1"/></g></svg>