<svg viewBox="0 0 96 96" xmlns="http://www.w3.org/2000/svg" xmlns:xlink="http://www.w3.org/1999/xlink" id="Icons_RemoteLearningEnglish_M" overflow="hidden"><style>
.MsftOfcThm_Background1_Fill_v2 {
 fill:#FFFFFF; 
}
</style>
<g id="Icons"><path d="M27.0619 53.7559C30.269 53.6523 38.4257 53.8959 45.0883 58.4648 45.5801 58.8068 46.1641 58.9916 46.7631 58.9948L49.2543 58.9948C49.8297 58.992 50.3918 58.8213 50.8715 58.5036 57.8915 53.9108 65.8378 53.6589 68.9286 53.7546 69.4962 53.7771 70.0452 53.5498 70.4306 53.1325 70.8386 52.6981 71.0412 52.1098 70.9872 51.5163L69.4789 34.4141C69.3935 33.3717 68.5316 32.5638 67.4858 32.5459L67.4716 32.5459C66.9903 32.5498 66.2862 32.5713 65.4172 32.6377L65.0458 28.332 64.2929 28.1963C58.2964 27.4548 52.2901 29.4976 47.9892 33.7415 43.6878 29.4987 37.6823 27.456 31.686 28.1963L30.933 28.332 30.5617 32.6367C29.6982 32.5713 28.998 32.5498 28.519 32.5459L28.5048 32.5459C27.4589 32.564 26.5973 33.3724 26.5126 34.415L25.0038 51.5176C24.9499 52.1123 25.153 52.7016 25.5619 53.1367 25.9487 53.5505 26.4958 53.7764 27.0619 53.7559ZM67.4867 34.5908 68.9941 51.7568C63.208 51.5689 57.4651 52.8145 52.2768 55.3828 56.3611 52.5478 61.0274 50.6613 65.9345 49.8613L66.893 49.7441 65.591 34.6516C66.39 34.5979 67.0417 34.585 67.4867 34.5908ZM63.1884 30.0752 64.7372 48.0252C58.932 49.09 53.5043 51.6489 48.9892 55.45L48.9892 35.5781C52.6755 31.734 57.8744 29.7192 63.1884 30.0752ZM32.79 30.0752C38.1041 29.7185 43.3032 31.7334 46.9892 35.5779L46.9892 55.45C42.4741 51.6488 37.0464 49.0898 31.2411 48.0252ZM28.5038 34.5459C28.9475 34.5493 29.5954 34.5693 30.3899 34.6284L29.0859 49.7441 30.0439 49.8613C34.7945 50.6343 39.3222 52.4239 43.3174 55.1079 38.2167 52.7155 32.628 51.5463 26.996 51.6934Z" class="MsftOfcThm_Background1_Fill_v2" stroke="none" stroke-width="1" stroke-linecap="butt" stroke-linejoin="miter" stroke-miterlimit="4" fill="#FFFFFF" fill-opacity="1"/><path d="M14.9982 20.0056 12.9982 20.0056 12.9982 66.0178 83.0015 66.0178 83.0015 20.0056 14.9982 20.0056ZM81.0015 64.0178 14.9982 64.0178 14.9982 22.0056 81.0015 22.0056Z" class="MsftOfcThm_Background1_Fill_v2" stroke="none" stroke-width="1" stroke-linecap="butt" stroke-linejoin="miter" stroke-miterlimit="4" fill="#FFFFFF" fill-opacity="1"/><path d="M84.0016 15.0039 11.9981 15.0039C9.79132 15.0107 8.00425 16.7983 7.9981 19.0051L7.9981 67.0186C8.00441 69.2253 9.79144 71.0127 11.9981 71.0195L40.9975 71.0195 40.9975 81.0225 29.9989 81.0225 29.9989 83.0225 66.0009 83.0225 66.0009 81.0225 54.9975 81.0225 54.9975 71.02 84.0016 71.02C86.2083 71.0132 87.9953 69.2258 88.0016 67.0191L88.0016 19.0051C87.9955 16.7983 86.2084 15.0107 84.0016 15.0039ZM52.9975 81.0225 42.9975 81.0225 42.9975 71.02 52.9975 71.02ZM86.0018 67.0186C86.0007 68.1229 85.1061 69.0179 84.0018 69.0195L11.9981 69.0195C10.8938 69.0179 9.9992 68.1229 9.9981 67.0186L9.9981 19.0051C9.99909 17.9007 10.8937 17.0056 11.9981 17.0039L84.0016 17.0039C85.106 17.0056 86.0006 17.9007 86.0016 19.0051Z" class="MsftOfcThm_Background1_Fill_v2" stroke="none" stroke-width="1" stroke-linecap="butt" stroke-linejoin="miter" stroke-miterlimit="4" fill="#FFFFFF" fill-opacity="1"/><path d="M60.7114 40.3381C57.6299 41.2906 54.6971 42.6702 51.9985 44.4368L51.9985 46.8887C54.6991 44.9301 57.6929 43.4115 60.8685 42.3892Z" class="MsftOfcThm_Background1_Fill_v2" stroke="none" stroke-width="1" stroke-linecap="butt" stroke-linejoin="miter" stroke-miterlimit="4" fill="#FFFFFF" fill-opacity="1"/><path d="M60.3053 35.0479C57.3707 35.9913 54.5766 37.3259 51.9985 39.0156L51.9985 41.4678C54.5813 39.5909 57.4359 38.1198 60.4633 37.1057Z" class="MsftOfcThm_Background1_Fill_v2" stroke="none" stroke-width="1" stroke-linecap="butt" stroke-linejoin="miter" stroke-miterlimit="4" fill="#FFFFFF" fill-opacity="1"/></g></svg>