<svg viewBox="0 0 96 96" xmlns="http://www.w3.org/2000/svg" xmlns:xlink="http://www.w3.org/1999/xlink" id="Icons_ProgrammerMale" overflow="hidden"><style>
.MsftOfcThm_Background1_Fill_v2 {
 fill:#FFFFFF; 
}
</style>
<g id="Icons"><path d="M62.2 54.6C66.4 56.1 70.4 57.8 73.7 60.5 75.1 61.6 75.9 63.2 75.9 65L77.7 80.5C77.8 81.2 77.5 81.9 76.9 82.3L76.9 82.3C75.2 83.4 73.4 84.3 71.5 84.9L71.5 88.1 74.2 88.1C75.9 87.4 77.6 86.6 79.1 85.6L79.1 85.6C80.9 84.4 81.9 82.2 81.6 80L80 64.9C79.9 62 78.6 59.3 76.3 57.5 72.6 54.4 68.2 52.5 63.6 50.9L58.7 48.9C58.3 48.7 58.1 48.4 58.1 48L58.1 45.6C61.9 42.6 64.1 38 64.1 33.1L64.1 29.5C64.7 29.9 65.4 30 66.1 30.1L64.4 25.1C64.2 24.4 64 23.7 63.9 23 63.1 17.3 59.7 13.3 55 10.8 54.6 10.6 54.1 10.6 53.7 10.9L52.8 11.6 51.8 10.2C51.5 9.8 51.1 9.4 50.6 9.3 49.7 9.1 48.8 9 47.9 9 40 9 33.4 15.2 32 23.3L32 24 32 24 32 25.7C32 27.9 31.6 30 30.7 32L29 36C29 36 30.2 35.7 32.2 35.1 32.7 39.2 34.8 42.9 38 45.4L38 47.9C38 48.3 37.8 48.7 37.4 48.8L32.5 50.8C27.9 52.4 23.5 54.3 19.8 57.4 17.5 59.2 16.1 61.9 16 64.8L14.3 80C14 82.2 15 84.4 16.8 85.6 18.3 86.6 20 87.4 21.7 88.1L24.5 88.1 24.5 85C22.6 84.3 20.8 83.5 19.1 82.4 18.5 82 18.2 81.3 18.3 80.6L20 65.2 20 65C20 63.2 20.9 61.6 22.3 60.5 25.6 57.8 29.6 56.1 33.8 54.6L35.4 54.1C38.3 55.9 42.9 57 48 57 53.1 57 57.7 55.9 60.7 54.1L62.2 54.6ZM36 33.9C42.8 31.6 52.6 27.6 57 22 57.9 23.4 58.9 24.7 60 26L60 33C60 39.6 54.6 45 48 45 41.7 45 36.5 40.2 36 33.9ZM40 51.9C41.2 51 42 49.5 42 47.9L42 47.8C45.8 49.4 50.2 49.4 54 47.8L54 47.9C54 49.4 54.7 50.9 55.9 51.9 53.3 52.7 50.6 53.1 47.9 53 45.3 53 42.6 52.6 40 51.9Z" class="MsftOfcThm_Background1_Fill_v2" stroke="none" stroke-width="1" stroke-linecap="butt" stroke-linejoin="miter" stroke-miterlimit="4" fill="#FFFFFF" fill-opacity="1"/><path d="M69.6 65.3C69.6 63.9 68.5 62.8 67.1 62.8L67.1 62.8 29 62.8C27.6 62.8 26.5 63.9 26.5 65.3L26.5 65.3 26.5 90.2 18.9 90.2 18.9 91.5C18.9 92.9 20 94 21.4 94L74.7 94C76.1 94 77.2 92.9 77.2 91.5L77.2 90.2 69.6 90.2 69.6 65.3ZM42.8 81.8 41.4 83.2 35.8 77.6 41.4 72 42.8 73.4 38.6 77.6 42.8 81.8ZM46.6 83.9 44.8 83.1 49.5 71.8 51.3 72.6 46.6 83.9ZM54.6 83.3 53.2 81.9 57.4 77.7 53.2 73.5 54.6 72.1 60.2 77.7 54.6 83.3Z" class="MsftOfcThm_Background1_Fill_v2" stroke="none" stroke-width="1" stroke-linecap="butt" stroke-linejoin="miter" stroke-miterlimit="4" fill="#FFFFFF" fill-opacity="1"/></g></svg>