<svg viewBox="0 0 96 96" xmlns="http://www.w3.org/2000/svg" xmlns:xlink="http://www.w3.org/1999/xlink" id="Icons_ArtistFemale" overflow="hidden"><style>
.MsftOfcThm_Background1_Fill_v2 {
 fill:#FFFFFF; 
}
</style>
<g id="Icons"><path d="M20.7 49.5 20.2 49.7C19.3 50.1 18.7 50.7 18.8 51.4L20.7 57.8 30.6 79.4C31.1 80.4 32.3 80.8 33.3 80.3 34.2 79.9 34.6 78.8 34.3 77.9L26 55.5 22.8 49.6C22.2 49.2 21.4 49.1 20.7 49.5Z" class="MsftOfcThm_Background1_Fill_v2" stroke="none" stroke-width="1" stroke-linecap="butt" stroke-linejoin="miter" stroke-miterlimit="4" fill="#FFFFFF" fill-opacity="1"/><path d="M27.8 54.5 27.9 54.6 27.9 54.7 28.7 56.9C31 55.7 33.4 54.7 35.9 53.8L46.7 63.4C47.5 64.1 48.6 64.1 49.4 63.4L60.2 53.8 60.6 54C66.1 56.1 70 58.1 72.8 60.5 73.1 60.8 73.5 61.1 73.7 61.5 75.4 61.7 77.1 62.1 78.7 62.6 78.1 60.6 77 58.8 75.4 57.5 72.3 54.9 68.2 52.7 62.4 50.5 64.5 50.4 66.6 50 68.6 49.3 67.4 47.8 66.6 46 66.4 44 66.2 40.5 68.4 36.2 67.2 30.9 69.8 31.8 70.7 30.8 71.1 29.1 71.8 26.5 62.3 18.6 54.3 14.1 54 13.9 53.6 13.7 53.3 13.6 53.9 13.2 54.6 12.9 55.3 12.6 55.8 12.4 56.1 11.9 55.9 11.3 55.7 10.8 55.2 10.5 54.7 10.7 53.4 11.1 52.2 11.8 51.2 12.7 45 10.6 39.7 12.7 35.5 12.5 31.3 12.3 29.5 12.4 28.4 14.4 27 16.9 28.9 20.7 31.5 21.6L31.3 22.3C31.2 22.8 31.5 23.4 32 23.5L32 23.5 32 24.2C31.7 24.6 31.3 25.1 31 25.7 25.9 33.4 29.8 39.4 29.6 44 29.4 45.9 28.6 47.8 27.4 49.3 29.5 50 31.6 50.4 33.8 50.5 31.6 51.3 29.4 52.3 27.2 53.4L27.8 54.5ZM36 33.3C40.2 30.9 44 27.8 47.4 24.4 51.6 25.3 55.6 26.8 59.3 28.8L60 29.2 60 33C60 39.6 54.6 45 48 45L48 45C41.5 45 36.2 39.8 36 33.3ZM48 59.3 39.9 52.1C41.2 51.2 42 49.7 42 48L42 47.8C45.8 49.4 50.2 49.4 54 47.8L54 48C54 49.6 54.8 51.1 56.1 52.1L48 59.3Z" class="MsftOfcThm_Background1_Fill_v2" stroke="none" stroke-width="1" stroke-linecap="butt" stroke-linejoin="miter" stroke-miterlimit="4" fill="#FFFFFF" fill-opacity="1"/><path d="M21 80.3 21 65C21 64.6 21.1 64.1 21.2 63.7L19.1 59.1C17.8 60.8 17.1 62.8 17 64.9L17 82.5 17.9 83.1C22.8 86.4 35.6 88 48.3 88 52.3 88 56.3 87.8 60 87.5 58 86.6 56.2 85.3 54.6 83.8 41.6 84.4 26.7 83.2 21 80.3Z" class="MsftOfcThm_Background1_Fill_v2" stroke="none" stroke-width="1" stroke-linecap="butt" stroke-linejoin="miter" stroke-miterlimit="4" fill="#FFFFFF" fill-opacity="1"/><path d="M70.4 63.3C60.5 63.3 62 67.2 63 68.1L65.2 70.3C66.6 71.7 64.9 73.4 63.3 72.7L57.8 70.3C54 68.6 52.9 73.3 52.9 75.6 52.9 82.4 60.7 87.9 70.4 87.9 80.1 87.9 87.9 82.4 87.9 75.6 87.9 68.8 80 63.3 70.4 63.3ZM81.3 69.4C82.5 69.4 83.5 70.1 83.5 70.9 83.5 71.7 82.5 72.4 81.3 72.4 80.1 72.4 79.1 71.7 79.1 70.9 79.1 70.1 80.1 69.4 81.3 69.4ZM64.2 84.7C63 84.7 62 84 62 83.2 62 82.4 63 81.7 64.2 81.7 65.4 81.7 66.4 82.4 66.4 83.2 66.4 84 65.5 84.7 64.2 84.7ZM70.4 85.6C69.2 85.6 68.2 84.9 68.2 84.1 68.2 83.3 69.2 82.6 70.4 82.6 71.6 82.6 72.6 83.3 72.6 84.1 72.6 84.9 71.6 85.6 70.4 85.6ZM76.5 84.3C75.3 84.3 74.3 83.6 74.3 82.8 74.3 82 75.3 81.3 76.5 81.3 77.7 81.3 78.7 82 78.7 82.8 78.7 83.6 77.7 84.3 76.5 84.3ZM76.5 69.4C75.3 69.4 74.3 68.7 74.3 67.9 74.3 67.1 75.3 66.4 76.5 66.4 77.7 66.4 78.7 67.1 78.7 67.9 78.7 68.7 77.7 69.4 76.5 69.4ZM81.3 81.6C80.1 81.6 79.1 80.9 79.1 80.1 79.1 79.3 80.1 78.6 81.3 78.6 82.5 78.6 83.5 79.3 83.5 80.1 83.5 80.9 82.5 81.6 81.3 81.6ZM83.5 76.8C82.3 76.8 81.3 76.1 81.3 75.3 81.3 74.5 82.3 73.8 83.5 73.8 84.7 73.8 85.7 74.5 85.7 75.3 85.7 76.1 84.7 76.8 83.5 76.8Z" class="MsftOfcThm_Background1_Fill_v2" stroke="none" stroke-width="1" stroke-linecap="butt" stroke-linejoin="miter" stroke-miterlimit="4" fill="#FFFFFF" fill-opacity="1"/><path d="M19.5 47.4C22.1 46.3 23.3 43.4 22.2 40.8 21.4 38.9 19.6 38.6 18.1 37.7 16.4 36.8 15.3 35 15.5 33 11.4 35.4 11.4 40.9 12.9 44.6 13.9 47.3 16.9 48.5 19.5 47.4 19.5 47.4 19.5 47.4 19.5 47.4Z" class="MsftOfcThm_Background1_Fill_v2" stroke="none" stroke-width="1" stroke-linecap="butt" stroke-linejoin="miter" stroke-miterlimit="4" fill="#FFFFFF" fill-opacity="1"/></g></svg>